#N canvas 0 57 1600 843 10;
#X obj 142 468 dac~;
#X obj 263 394 hsl 128 15 0 0.2 0 0 empty empty empty -2 -8 0 10 -262144
-1 -1 1270 1;
#X obj 142 433 *~ 0.1;
#X floatatom 260 418 5 0 0 0 - - -;
#X obj 130 81 osc/unpackOSC;
#X floatatom 130 168 5 0 0 0 - - -;
#X obj 259 339 loadbang;
#X text 316 417 volume;
#X obj 130 59 iemnet/udpreceive 8001;
#X obj 130 103 osc/routeOSC /pdRecv;
#X obj 22 54 loadbang;
#X msg 22 148 \; pd dsp 1;
#X obj 22 108 del 100;
#X msg 260 369 0.02;
#X obj 134 280 *~;
#X obj 262 243 *~;
#X obj 369 243 *~;
#X msg 297 193 3;
#X floatatom 297 216 5 0 0 0 - - -;
#X floatatom 245 161 5 0 0 0 - - -;
#X floatatom 369 152 5 0 0 0 - - -;
#X obj 244 194 osc~ 4;
#X obj 369 199 osc~ 5;
#X obj 297 166 loadbang;
#X msg 422 196 3;
#X floatatom 421 228 5 0 0 0 - - -;
#X obj 422 169 loadbang;
#X obj 131 245 osc~ 0;
#X connect 1 0 3 0;
#X connect 2 0 0 0;
#X connect 2 0 0 1;
#X connect 3 0 2 1;
#X connect 4 0 9 0;
#X connect 5 0 27 0;
#X connect 6 0 13 0;
#X connect 8 0 4 0;
#X connect 9 0 5 0;
#X connect 10 0 12 0;
#X connect 12 0 11 0;
#X connect 13 0 1 0;
#X connect 14 0 2 0;
#X connect 15 0 14 1;
#X connect 16 0 14 1;
#X connect 17 0 18 0;
#X connect 18 0 15 1;
#X connect 19 0 21 0;
#X connect 20 0 22 0;
#X connect 21 0 15 0;
#X connect 22 0 16 0;
#X connect 23 0 17 0;
#X connect 24 0 25 0;
#X connect 25 0 16 1;
#X connect 26 0 24 0;
#X connect 27 0 14 0;
